# xmcd
#
# Track frame offsets:
#	150
#	17850
#	35325
#	58050
#	72975
#	88793
#	104768
#	122918
#	140318
#	158018
#	175493
#	198218
#	213143
#	228961
#	244936
#	263086
#
# Disc length: 3739 seconds
#
# Revision: 2
# Processed by: cddbd v1.5.2PL0 Copyright (c) Steve Scherf et al.
# Submitted via: audiograbber 1.83.01
#
DISCID=e20e9910
DTITLE=Party Tyme Karaoke - SYB1625 Girl Country 3 2005
DYEAR=2005
DGENRE=Karaoke
TTITLE0=Gretchen Wilson - Redneck Woman
TTITLE1=Terri Clark - Girls Lie Too
TTITLE2=Shania Twain - Forever And Always
TTITLE3=Gretchen Wilson - Here For The Party
TTITLE4=LeAnn Rimes - Big Deal
TTITLE5=Martina McBride - In My Daughter's Eyes
TTITLE6=Faith Hill - There You'll Be
TTITLE7=Sarah Evans - Suds In The Bucket
TTITLE8=Gretchen Wilson - Redneck Woman
TTITLE9=Terri Clark - Girls Lie Too (Vocals)
TTITLE10=Shania Twain - Forever and Always (Vocal)
TTITLE11=Gretchen Wilson - Here for the Party (vocal)
TTITLE12=LeAnn Rimes - Big Deal (vocals)
TTITLE13=Martina McBride - In My daughters Eyes (vocal)
TTITLE14=Failth Hill - There You'll Be (vocals)
TTITLE15=Sarah Evans - Suds in the Bucket (vocals)
EXTD=Party Tyme Karaoke GIRL COUNTRY 3
EXTT0=
EXTT1=
EXTT2=
EXTT3=
EXTT4=
EXTT5=
EXTT6=
EXTT7=
EXTT8=
EXTT9=
EXTT10=
EXTT11=
EXTT12=
EXTT13=
EXTT14=
EXTT15=
PLAYORDER=
